<?xml version="1.0" encoding="UTF-8"?>
<svg width="90px" height="57px" viewBox="0 0 90 57" version="1.1" xmlns="http://www.w3.org/2000/svg" xmlns:xlink="http://www.w3.org/1999/xlink">
    <!-- Generator: Sketch 48.2 (47327) - http://www.bohemiancoding.com/sketch -->
    <title>eye</title>
    <desc>Created with Sketch.</desc>
    <defs></defs>
    <g id="Page-1" stroke="none" stroke-width="1" fill="none" fill-rule="evenodd">
        <g id="eye" fill="#9299A1" fill-rule="nonzero">
            <path d="M0.291,28.52 C0.291,27.432 20.969,0.034 45,0.034 C69.03,0.034 89.71,27.432 89.71,28.519 C89.71,29.607 69.03,57.004 45,57.005 C20.97,57.006 0.291,29.609 0.291,28.521 M7.91,28.516 C12.551,34.152 27.656,50.696 45,50.696 C62.383,50.696 77.454,34.16 82.09,28.526 C77.448,22.889 62.344,6.346 45,6.346 C27.617,6.346 12.546,22.881 7.91,28.516" id="Shape"></path>
            <path d="M45,11.06 C35.365,11.06 27.562,18.862 27.562,28.498 C27.562,38.133 35.364,45.967 45,45.967 C54.635,45.967 62.438,38.134 62.438,28.498 C62.438,18.863 54.636,11.06 45,11.06 M38.844,17.998 L44.969,24.154 L51.157,17.998 L55.501,22.373 L49.345,28.498 L55.501,34.654 L51.157,38.998 L44.969,32.842 L38.844,38.998 L34.5,34.654 L40.625,28.498 L34.5,22.373 L38.844,17.998" id="Shape"></path>
        </g>
    </g>
</svg>